<svg width="1280" height="720" viewBox="0 0 1280 720" fill="none" xmlns="http://www.w3.org/2000/svg">
  <rect width="1280" height="720" fill="#F3F2F1"/>
  <g transform="translate(120 70)">
    <g transform="translate(0 0)">
      <rect x="0" y="0" width="150" height="170" fill="#EF2B12"/>
      <path d="M32 24H127L120 42H43L32 24Z" fill="#111111"/>
      <path d="M22 74H109L102 91H15L22 74Z" fill="#111111"/>
      <path d="M32 123H127L120 141H43L32 123Z" fill="#111111"/>
      <path d="M22 24H43L32 141H11L22 24Z" fill="#111111"/>
      <path d="M43 24L32 42" stroke="white" stroke-width="7" stroke-linecap="round"/>
      <path d="M28 74L15 91" stroke="white" stroke-width="7" stroke-linecap="round"/>
      <path d="M43 123L32 141" stroke="white" stroke-width="7" stroke-linecap="round"/>
    </g>

    <text x="186" y="135" fill="#111111" font-family="Segoe UI, Arial, Helvetica, sans-serif" font-size="168" font-weight="700" letter-spacing="-4">Evidence</text>

    <text x="0" y="455" fill="#EF2B12" font-family="Segoe UI, Arial, Helvetica, sans-serif" font-size="248" font-weight="300" letter-spacing="-8">Co</text>
    <path d="M222 260L322 315" stroke="#111111" stroke-width="20" stroke-linecap="round"/>
    <path d="M222 315L300 268" stroke="#111111" stroke-width="20" stroke-linecap="round"/>
    <text x="350" y="455" fill="#111111" font-family="Segoe UI, Arial, Helvetica, sans-serif" font-size="248" font-weight="700" letter-spacing="-8">Pilot</text>

    <text x="36" y="540" fill="#8E8179" font-family="Segoe UI, Arial, Helvetica, sans-serif" font-size="78" font-style="italic" font-weight="300" letter-spacing="-1.5">Accelerating evidence with GenAI</text>
  </g>
</svg>
